<?xml version="1.0" encoding="iso-8859-1"?>
<!-- Generator: Adobe Illustrator 19.0.0, SVG Export Plug-In . SVG Version: 6.00 Build 0)  -->
<svg version="1.1" id="Layer_1" xmlns="http://www.w3.org/2000/svg" xmlns:xlink="http://www.w3.org/1999/xlink" x="0px" y="0px"
	 viewBox="0 0 512 512" style="enable-background:new 0 0 512 512;" xml:space="preserve" fill="white">
<g>
	<g>
		<path d="M302.832,49.963l-28.302-16.34l-14.058,24.349c-1.47-0.151-2.962-0.228-4.471-0.228c-1.51,0-3.002,0.076-4.473,0.228
			l-14.056-24.347l-28.302,16.34l13.471,23.332c-6.373,7.576-10.216,17.347-10.216,28.021c0,24.066,19.509,43.574,43.574,43.574
			c24.065,0,43.574-19.508,43.574-43.574c0-10.675-3.843-20.447-10.215-28.023L302.832,49.963z"/>
	</g>
</g>
<g>
	<g>
		<path d="M436.146,212.603c-25.332-21.878-55.011-38.584-87.321-49.525c17.451-7.083,33.641-16.211,48.052-27.231
			c39.115-29.912,60.656-70.084,60.656-113.118h-32.681c0,38.668-23.74,73.298-60.969,96.295
			c11.044-18.658,17.395-40.407,17.395-63.614c0-17.418-3.511-34.283-10.435-50.127l-29.945,13.089
			c5.109,11.69,7.7,24.152,7.7,37.038c0,19.666-6.181,37.904-16.676,52.915c-3.55,38.775-36.237,69.249-75.92,69.249
			c-39.684,0-72.37-30.475-75.92-69.249c-10.495-15.01-16.676-33.25-16.676-52.915c0-12.884,2.589-25.344,7.699-37.034
			L141.156,5.291c-6.923,15.841-10.433,32.704-10.433,50.119c0,23.209,6.351,44.958,17.395,63.614
			c-37.229-22.998-60.969-57.627-60.969-96.295H54.468c0,43.034,21.541,83.208,60.656,113.118
			c14.411,11.02,30.601,20.148,48.052,27.231c-32.31,10.94-61.989,27.647-87.321,49.525C26.939,254.847,0,311.216,0,371.325
			c0,28.159,5.925,55.613,17.612,81.6l29.805-13.405c-9.778-21.745-14.736-44.688-14.736-68.195
			c0-49.525,22.232-94.695,58.629-128.624c-16.487,28.195-25.949,60.989-25.949,95.943c0,70.366,38.555,134.768,100.617,168.072
			l15.454-28.796c-51.436-27.603-83.39-80.97-83.39-139.276c0-55.536,28.813-104.463,72.27-132.636
			c-33.651,42.753-30.77,104.878,8.656,144.304L256,427.342l77.03-77.03c39.426-39.427,42.306-101.554,8.655-144.304
			c43.459,28.171,72.273,77.1,72.273,132.636c0,58.306-31.952,111.674-83.39,139.277l15.453,28.796
			c62.063-33.305,100.618-97.708,100.618-168.073c0-34.954-9.46-67.747-25.948-95.943c36.397,33.929,58.628,79.1,58.628,128.624
			c0,23.966-5.148,47.328-15.302,69.44l29.699,13.639C505.848,427.982,512,400.032,512,371.325
			C512,311.216,485.061,254.847,436.146,212.603z"/>
	</g>
</g>
<g>
</g>
<g>
</g>
<g>
</g>
<g>
</g>
<g>
</g>
<g>
</g>
<g>
</g>
<g>
</g>
<g>
</g>
<g>
</g>
<g>
</g>
<g>
</g>
<g>
</g>
<g>
</g>
<g>
</g>
</svg>
